<svg version="1.1" viewBox="0 0 36 36" xmlns="http://www.w3.org/2000/svg">
    <path d="m6.401 26.836c5.006 5.006 16.502 11.969 29.533-0.07-7.366-1.417-8.662-10.789-13.669-15.794-5.006-5.007-11.991-6.139-16.998-1.133-5.006 5.006-3.873 11.99 1.134 16.997z" fill="#0f0"/>
    <path d="m24.684 28.096c6.128 1.634 10.658-0.738 11.076-1.156 0 0-3.786 1.751-10.359-1.476 0.952-1.212 3.854-2.909 3.854-2.909-0.553-0.346-4.078-0.225-6.485 1.429-1.158-0.733-2.384-1.617-3.673-2.675l0.84-0.871c3.25-3.384 6.944-2.584 6.944-2.584-0.638-0.613-5.599-3.441-9.583 0.7l-0.613 0.638c-0.426-0.399-0.856-0.812-1.294-1.25l-1.85-1.85 1.064-1.065c3.321-3.32 8.226-3.451 8.226-3.451-0.626-0.627-6.863-2.649-10.924 1.412l-0.736 0.735-8.292-8.294c-0.626-0.627-1.692-0.575-2.317 0.05-0.626 0.626-0.677 1.691-0.051 2.317l8.293 8.293-0.059 0.059c-4.061 4.062-2.375 10.634-1.748 11.261 0 0 0.468-5.242 3.789-8.562l0.387-0.388 3.501 3.502c0.057 0.057 0.113 0.106 0.17 0.163-2.425 4.797 1.229 10.34 1.958 10.784 0 0-1.465-4.723 0.48-8.635 1.526 1.195 3.02 2.095 4.457 2.755 0.083 2.993 2.707 5.7 3.344 5.931 0 0-0.911-3.003-0.534-4.487z" fill="#009600"/>
</svg>
