<?xml version="1.0" encoding="UTF-8" standalone="no"?>
<svg
   xmlns:dc="http://purl.org/dc/elements/1.1/"
   xmlns:cc="http://creativecommons.org/ns#"
   xmlns:rdf="http://www.w3.org/1999/02/22-rdf-syntax-ns#"
   xmlns:svg="http://www.w3.org/2000/svg"
   xmlns="http://www.w3.org/2000/svg"
   xmlns:sodipodi="http://sodipodi.sourceforge.net/DTD/sodipodi-0.dtd"
   xmlns:inkscape="http://www.inkscape.org/namespaces/inkscape"
   viewBox="0 0 36 36"
   version="1.1"
   id="svg853"
   sodipodi:docname="leaf.svg"
   inkscape:version="1.0.2 (e86c870, 2021-01-15)">
  <metadata
     id="metadata859">
    <rdf:RDF>
      <cc:Work
         rdf:about="">
        <dc:format>image/svg+xml</dc:format>
        <dc:type
           rdf:resource="http://purl.org/dc/dcmitype/StillImage" />
      </cc:Work>
    </rdf:RDF>
  </metadata>
  <defs
     id="defs857" />
  <sodipodi:namedview
     pagecolor="#ffffff"
     bordercolor="#666666"
     borderopacity="1"
     objecttolerance="10"
     gridtolerance="10"
     guidetolerance="10"
     inkscape:pageopacity="0"
     inkscape:pageshadow="2"
     inkscape:window-width="1920"
     inkscape:window-height="1027"
     id="namedview855"
     showgrid="false"
     inkscape:zoom="14.583333"
     inkscape:cx="18"
     inkscape:cy="18"
     inkscape:window-x="1358"
     inkscape:window-y="-8"
     inkscape:window-maximized="1"
     inkscape:current-layer="svg853" />
  <path
     fill="#A6D388"
     d="m 6.401,26.835714 c 5.006,5.006 16.502,11.969 29.533,-0.07 -7.366,-1.417 -8.662,-10.789 -13.669,-15.794 C 17.259,5.9647143 10.274,4.8327143 5.267,9.8387143 0.261,14.844714 1.394,21.828714 6.401,26.835714 Z"
     id="path847"
     style="fill:#00ff00;fill-opacity:1" />
  <path
     fill="#77B255"
     d="m 24.684,28.095714 c 6.128,1.634 10.658,-0.738 11.076,-1.156 0,0 -3.786,1.751 -10.359,-1.476 0.952,-1.212 3.854,-2.909 3.854,-2.909 -0.553,-0.346 -4.078,-0.225 -6.485,1.429 -1.158,-0.733 -2.384,-1.617 -3.673,-2.675 l 0.84,-0.871 c 3.25,-3.384 6.944,-2.584 6.944,-2.584 -0.638,-0.613 -5.599,-3.441 -9.583,0.7 l -0.613,0.638 c -0.426,-0.399 -0.856,-0.812 -1.294,-1.25 l -1.85,-1.85 1.064,-1.065 c 3.321,-3.32 8.226,-3.451 8.226,-3.451 -0.626,-0.627 -6.863,-2.6489997 -10.924,1.412 l -0.736,0.735 -8.292,-8.2939997 c -0.626,-0.627 -1.692,-0.575 -2.317,0.05 -0.626,0.626 -0.677,1.691 -0.051,2.317 l 8.293,8.2929997 -0.059,0.059 c -4.061,4.062 -2.375,10.634 -1.748,11.261 0,0 0.468,-5.242 3.789,-8.562 l 0.387,-0.388 3.501,3.502 c 0.057,0.057 0.113,0.106 0.17,0.163 -2.425,4.797 1.229,10.34 1.958,10.784 0,0 -1.465,-4.723 0.48,-8.635 1.526,1.195 3.02,2.095 4.457,2.755 0.083,2.993 2.707,5.7 3.344,5.931 0,0 -0.911,-3.003 -0.534,-4.487 z"
     id="path849"
     style="fill:#009600;fill-opacity:1" />
</svg>
