<?xml version="1.0" encoding="UTF-8" standalone="no"?>
<svg
   xmlns:dc="http://purl.org/dc/elements/1.1/"
   xmlns:cc="http://creativecommons.org/ns#"
   xmlns:rdf="http://www.w3.org/1999/02/22-rdf-syntax-ns#"
   xmlns:svg="http://www.w3.org/2000/svg"
   xmlns="http://www.w3.org/2000/svg"
   xmlns:sodipodi="http://sodipodi.sourceforge.net/DTD/sodipodi-0.dtd"
   xmlns:inkscape="http://www.inkscape.org/namespaces/inkscape"
   viewBox="0 0 36 36"
   version="1.1"
   id="svg905"
   sodipodi:docname="patchAttributes.svg"
   inkscape:version="1.0.2 (e86c870, 2021-01-15)">
  <metadata
     id="metadata911">
    <rdf:RDF>
      <cc:Work
         rdf:about="">
        <dc:format>image/svg+xml</dc:format>
        <dc:type
           rdf:resource="http://purl.org/dc/dcmitype/StillImage" />
      </cc:Work>
    </rdf:RDF>
  </metadata>
  <defs
     id="defs909" />
  <sodipodi:namedview
     pagecolor="#ffffff"
     bordercolor="#666666"
     borderopacity="1"
     objecttolerance="10"
     gridtolerance="10"
     guidetolerance="10"
     inkscape:pageopacity="0"
     inkscape:pageshadow="2"
     inkscape:window-width="1366"
     inkscape:window-height="715"
     id="namedview907"
     showgrid="false"
     inkscape:zoom="14.583333"
     inkscape:cx="18"
     inkscape:cy="18"
     inkscape:window-x="-8"
     inkscape:window-y="305"
     inkscape:window-maximized="1"
     inkscape:current-layer="svg905" />
  <path
     fill="#D99E82"
     d="M2.92 21.393L21.393 2.92c3.227-3.227 8.46-3.227 11.687 0 3.227 3.227 3.227 8.46 0 11.687L14.607 33.08c-3.227 3.227-8.46 3.227-11.687 0-3.227-3.228-3.227-8.46 0-11.687z"
     id="path873"
     style="fill:#7acd7a;fill-opacity:1" />
  <g
     fill="#C1694F"
     id="g899"
     style="fill:#419941;fill-opacity:1">
    <circle
       cx="4.389"
       cy="25.778"
       r=".972"
       id="circle875"
       style="fill:#419941;fill-opacity:1" />
    <circle
       cx="7.306"
       cy="28.694"
       r=".972"
       id="circle877"
       style="fill:#419941;fill-opacity:1" />
    <circle
       cx="10.222"
       cy="31.611"
       r=".972"
       id="circle879"
       style="fill:#419941;fill-opacity:1" />
    <circle
       cx="7.306"
       cy="22.861"
       r=".972"
       id="circle881"
       style="fill:#419941;fill-opacity:1" />
    <circle
       cx="10.222"
       cy="25.778"
       r=".972"
       id="circle883"
       style="fill:#419941;fill-opacity:1" />
    <circle
       cx="13.139"
       cy="28.694"
       r=".972"
       id="circle885"
       style="fill:#419941;fill-opacity:1" />
    <path
       d="M21.896 7.189c.064-.533.548-.913 1.081-.849.533.064.913.548.849 1.081-.064.533-.548.913-1.081.849-.533-.063-.913-.547-.849-1.081z"
       id="path887"
       style="fill:#419941;fill-opacity:1" />
    <circle
       cx="25.778"
       cy="10.222"
       r=".972"
       id="circle889"
       style="fill:#419941;fill-opacity:1" />
    <circle
       cx="28.694"
       cy="13.139"
       r=".972"
       id="circle891"
       style="fill:#419941;fill-opacity:1" />
    <circle
       cx="25.778"
       cy="4.389"
       r=".972"
       id="circle893"
       style="fill:#419941;fill-opacity:1" />
    <circle
       cx="28.694"
       cy="7.306"
       r=".972"
       id="circle895"
       style="fill:#419941;fill-opacity:1" />
    <circle
       cx="31.611"
       cy="10.222"
       r=".972"
       id="circle897"
       style="fill:#419941;fill-opacity:1" />
  </g>
  <path
     fill="#EABAA7"
     d="M6.82 17.514L17.512 6.819 29.18 18.486 18.486 29.18z"
     id="path901" />
  <path
     fill="#F7DED5"
     d="M9.799 18.423c-.249 0-.498-.095-.687-.285-.38-.38-.38-.995 0-1.375l7.715-7.715c.38-.38.995-.38 1.375 0s.38.995 0 1.375l-7.715 7.715c-.191.191-.439.285-.688.285z"
     id="path903" />
</svg>
