<?xml version="1.0" encoding="UTF-8" standalone="no"?>
<svg
   xmlns:dc="http://purl.org/dc/elements/1.1/"
   xmlns:cc="http://creativecommons.org/ns#"
   xmlns:rdf="http://www.w3.org/1999/02/22-rdf-syntax-ns#"
   xmlns:svg="http://www.w3.org/2000/svg"
   xmlns="http://www.w3.org/2000/svg"
   xmlns:sodipodi="http://sodipodi.sourceforge.net/DTD/sodipodi-0.dtd"
   xmlns:inkscape="http://www.inkscape.org/namespaces/inkscape"
   viewBox="0 0 36 36"
   version="1.1"
   id="svg1243"
   sodipodi:docname="save.svg"
   inkscape:version="1.0.2 (e86c870, 2021-01-15)">
  <metadata
     id="metadata1249">
    <rdf:RDF>
      <cc:Work
         rdf:about="">
        <dc:format>image/svg+xml</dc:format>
        <dc:type
           rdf:resource="http://purl.org/dc/dcmitype/StillImage" />
      </cc:Work>
    </rdf:RDF>
  </metadata>
  <defs
     id="defs1247" />
  <sodipodi:namedview
     pagecolor="#ffffff"
     bordercolor="#666666"
     borderopacity="1"
     objecttolerance="10"
     gridtolerance="10"
     guidetolerance="10"
     inkscape:pageopacity="0"
     inkscape:pageshadow="2"
     inkscape:window-width="1366"
     inkscape:window-height="715"
     id="namedview1245"
     showgrid="false"
     inkscape:zoom="14.583333"
     inkscape:cx="18"
     inkscape:cy="18"
     inkscape:window-x="-8"
     inkscape:window-y="305"
     inkscape:window-maximized="1"
     inkscape:current-layer="svg1243" />
  <path
     fill="#31373D"
     d="M4 36s-4 0-4-4V4s0-4 4-4h26c1 0 2 1 2 1l3 3s1 1 1 2v26s0 4-4 4H4z"
     id="path1237" />
  <path
     fill="#55ACEE"
     d="M5 19v-1s0-2 2-2h21c2 0 2 2 2 2v1H5z"
     id="path1239"
     style="fill:#00cc00;fill-opacity:1" />
  <path
     fill="#E1E8ED"
     d="M5 32.021V19h25v13s0 2-2 2H7c-2 0-2-1.979-2-1.979zM10 3s0-1 1-1h18c1.048 0 1 1 1 1v10s0 1-1 1H11s-1 0-1-1V3zm12 10h5V3h-5v10z"
     id="path1241" />
</svg>
